<svg xmlns="http://www.w3.org/2000/svg">
  <symbol id="settings" viewBox="0 0 16 16">
    <path d="M14.2 8c0-0.35-0.03-0.71-0.1-1.07l1.97-1.71L14.7 2.38l-2.49 0.83A6.53 6.53 0 0 0 9.99 2.07L10.52 0H5.48l0.53 2.07A6.47 6.47 0 0 0 3.78 3.2l-2.49-0.83L0 5.22l1.97 1.71A6.94 6.94 0 0 0 1.8 8c0 0.35 0.03 0.71 0.1 1.07L0 10.78l1.29 2.2 2.49-0.83a6.47 6.47 0 0 0 2.23 1.13L5.48 16h5.04l-0.53-2.07a6.53 6.53 0 0 0 2.43-1.13l2.49 0.83L16 10.78l-1.97-1.71c0.07-0.36 0.1-0.72 0.1-1.07M8 11.8A3.8 3.8 0 1 1 8 4.2a3.8 3.8 0 0 1 0 7.6Z" fill="currentColor"/>
  </symbol>
</svg>